/* XPM */
static char *_b823f62a8184596cdfc16e3a9440109JRiTRSXjFX0tMq8t[] = {
/* columns rows colors chars-per-pixel */
"30 30 76 1 ",
"  c #D22E21",
". c #D23327",
"X c #D3352A",
"o c #D3392D",
"O c #D33F34",
"+ c #D34136",
"@ c #D3453B",
"# c #D44D43",
"$ c #D55047",
"% c #D6564E",
"& c #D65B53",
"* c #D8645C",
"= c #D66760",
"- c #D96A63",
"; c #D96F69",
": c #D6756E",
"> c #D9726B",
", c #D77871",
"< c #D87B75",
"1 c #DB817C",
"2 c #DC8A85",
"3 c #DC9692",
"4 c #DC9A96",
"5 c #DC9D9A",
"6 c #E0A29F",
"7 c #D4A4A1",
"8 c #DFA6A4",
"9 c #DEAAA7",
"0 c #DCABA9",
"q c #D5B6B4",
"w c #DFB4B2",
"e c #DDB9B7",
"r c #D7BDBC",
"t c #DDBDBB",
"y c #E0A4A1",
"u c #E2B4B2",
"i c #E4BDBB",
"p c #DDC8C7",
"a c #DBCDCC",
"s c #D6D6D6",
"d c #DED4D3",
"f c #D6D8D8",
"g c #DEDEDE",
"h c #E4C4C3",
"j c #E3C8C7",
"k c #E3CCCC",
"l c #E6D4D5",
"z c #E6D7D8",
"x c #E4DBDC",
"c c #E8DDDE",
"v c #DFDFE0",
"b c #E3DFE0",
"n c #E8DFE1",
"m c #DFE0E0",
"M c #DFE2E2",
"N c gray88",
"B c gray89",
"V c #E4E3E3",
"C c #E2E3E4",
"Z c #E4E3E4",
"A c #E3E5E6",
"S c #E5E4E5",
"D c #E9E1E2",
"F c #E9E3E5",
"G c #EAE5E7",
"H c #E6E6E8",
"J c #E7E7E8",
"K c #EAE7E9",
"L c #E7E8EA",
"P c #E9E9EA",
"I c #E9EAEC",
"U c #EAEAEC",
"Y c #EBEBED",
"T c #EBECEE",
"R c #EBECEF",
"E c #EBEDF0",
/* pixels */
"gfZSACASCSSSSNSSCAZSSZVSNSSNgf",
"ssggmmggmgvmmgmNvmggmgmmNmmgss",
"fgZHHHHHSHHHHHSHHHHHSHLu:4SSgf",
"bNPUUUUTUUUUUUUUUUUUUUE3 ;PPNg",
"gNKUKSAASNNSSSHSAASUPPHt29UKmg",
"mNPUAmMmgsfgmmmmmmmPUSmmmAUPmm",
"gNPPw555rgmASSSAb05kCSSAAHUHmv",
"gNPK-XoX2PUUUUUTn%o7fmUUPPUPNg",
"mmKK-XoX2EUUUULSc<;egmHUUUULNg",
"gbPG=.X.2EUUUUHfsCKUUAvSUUUPNN",
"gmPK1%%%4LPUUUPgfKUljzCHLPUPNm",
"gNPUDccnxsgUUUUUUUK>OyUHmSUPNg",
"xmzzKUUTNsgUHzzlzSG<@yEHNSUPNg",
"md*$iUUUSgCTj%$#%rfapnUUUUUHNg",
"md&+iUUUHgSEhOXXOqsgmSDnnGUUNN",
"mmjhxCLTSNSTiOoo+rggg3&&&2UHmg",
"gmUTCNSKSgAEh+oo@tMmm<.X.;PLmv",
"gmPUNN4-8LKUcuuuidmSP1XoX>KLxg",
"mmPUNg, 2UUUUTEETmNLE1.o.;PPmg",
"gmPPZgi5hUHgmASUUHHUEi543wULMm",
"mmPUVNLTTUAsfxmURRRRUTTLmSUUmg",
"gbPUVgSSLUHNASx6334kKLUHgCULmg",
"gNPUSNmmAUUUPTl@XXo0mSTSbCUPNm",
"vNPPSmSAHUUUUTl#oo+0mSHAgCUPNg",
"gMUUTTUUUUUUUTl@..o9mmmmgAPPmg",
"xmPPjizTUUUUUUz;***tASBBmPPPmv",
"mxPP;o8TUUUUUUPGDGGPUUUPUUUHxm",
"ggHG<#9UPLLLPHPUPPPPPPPPPPPHgg",
"ssgmdaxmmNNNNNMmNNmmNNNNNNmgfs",
"ssggMMvmgmgmgmmxmxmmmmgggbggss"
};
