/* XPM */
static char *_1d31f73950a4edccd94e25de39c836bbphY47sKvXzpXXkV[] = {
/* columns rows colors chars-per-pixel */
"30 30 85 1 ",
"  c #57371E",
". c #5A361B",
"X c #5D3A1E",
"o c #603C1F",
"O c #5C3B22",
"+ c #623E22",
"@ c #5F4129",
"# c #644125",
"$ c #6A4425",
"% c #64432A",
"& c #6A462A",
"* c #6D492D",
"= c #704727",
"- c #734C2D",
"; c #794F2E",
": c #654B34",
"> c #6E4E36",
", c #724E33",
"< c #6F5137",
"1 c #6F573F",
"2 c #755236",
"3 c #7A5435",
"4 c #7D5937",
"5 c #76543A",
"6 c #7A563A",
"7 c #77583D",
"8 c #7D593C",
"9 c #745641",
"0 c #765A43",
"q c #7C5D44",
"w c #785D48",
"e c #7D624C",
"r c #815636",
"t c #825936",
"y c #825B3C",
"u c #895F3F",
"i c #87603F",
"p c #8D613F",
"a c #835E41",
"s c #856245",
"d c #8B6344",
"f c #8F6847",
"g c #83644B",
"h c #8B664A",
"j c #86684E",
"k c #8E694C",
"l c #916645",
"z c #946A46",
"x c #946C4C",
"c c #996E4D",
"v c #9D714F",
"b c #836751",
"n c #846951",
"m c #8E6C52",
"M c #936E51",
"N c #986F51",
"B c #8E725A",
"V c #957154",
"C c #9A7252",
"Z c #917158",
"A c #9B7558",
"S c #9D795C",
"D c #A27756",
"F c #A37C5C",
"G c #AA7E5B",
"H c #917760",
"J c #967860",
"K c #9B7C63",
"L c #927B69",
"P c #9A7E6A",
"I c #A37F61",
"U c #AC815E",
"Y c #9E826C",
"T c #9E8571",
"R c #9D8877",
"E c #A68164",
"W c #AC8363",
"Q c #AF8867",
"! c #A48368",
"~ c #AB8669",
"^ c #AE886B",
"/ c #B08664",
"( c #B58967",
") c #B48A6B",
"_ c #B98D6B",
/* pixels */
"/vxxx8555F/MkMm8755%#2rrtW/64U",
"rlc-O2855$+++++,6#Ohm85I/Nc+X#",
"rdM*X,56y$o++++58#XjM66I~ZM&%+",
"(f555&XA)Cxmm82FQ&X5666%%JY~E8",
")h9qa&oV~cxxxyyG/-o5655@OK!~W8",
"MhgP)a2%odNy3G/vzxx87OX50!^Cx4",
"mngKQdy&.sN43FWvxxk83&&26EWxh6",
"Ma9hcG(,.sNy383xM#O58EQ83Nc+X2",
"Ny,kxG(,osN65<2hk&@28SE83xk$#6",
"_;.sNzNa5kM*OOOOX2352#X356558W",
"(roaxkmq9bM*+&+=&268y=$35y864U",
"(l23329ab9965I)(Qi2E(((85kx53x",
"Ga3yuuyhnqq55AI/U4;U/UU88mBq8x",
"r63F(((VMmM&.5rlx$ofx4330PYZMc",
"yr2CI//NkMV&O<5sk*#dz438qKPbhk",
"Ny2r6lct2kZ&OOO24kV8565kxmM++2",
"xa852sx86ah+O++56kcy552xcDc&+y",
"2dV&.2330+OOO9656lxr2++I((W65m",
"3dV-+6s36*+**0a66cvpa++I/U!aqn",
"2fCi2I_p2kN()Vxy6I(()++lcxmYYw",
"4dxy3AWu3lxDGMmq9IGDI++hxxMJH7",
"Vi353fxyrxNr;xMnbBN+.O+kNxM5>+",
"s6252fct3allafkggbk=+++hfffda;",
" O.25fVy363I_y275999aZZa333/_(",
"%&&55dx8563DWp889<<5>ag65upGUG",
"2kCe3223583xccC62+OOOO.5y/(czz",
"qdd83adt52,sksssa*++%&*66DFcxz",
"cy34;G_p2@ >5O.G_a596MN5333xcc",
"cy3ydDUpy*%we:#AWay56sbbwaafsa",
"cy2G_vzcxe7LRe7kcNcy669PRBM55+"
};
