/* XPM */
static char *_0045e02b3394397aeb29ac141b93ef6IMjomRX06ycERg53[] = {
/* columns rows colors chars-per-pixel */
"30 30 202 2 ",
"   c #000201",
".  c #000D00",
"X  c #0A0F09",
"o  c #011301",
"O  c #011B00",
"+  c #0E170E",
"@  c #0A1A09",
"#  c #022201",
"$  c #022C01",
"%  c #0B2608",
"&  c #043100",
"*  c #0E3109",
"=  c #3C7A36",
"-  c #44773E",
";  c #527C4C",
":  c #0F9709",
">  c #0E9306",
",  c #13960C",
"<  c #10980A",
"1  c #179412",
"2  c #1C9C15",
"3  c #1D9715",
"4  c #268C1F",
"5  c #25971D",
"6  c #239C1A",
"7  c #239A18",
"8  c #18A012",
"9  c #2B8C24",
"0  c #2A8824",
"q  c #358A2C",
"w  c #2D9624",
"e  c #2A9723",
"r  c #31952A",
"t  c #339B2B",
"y  c #36922A",
"u  c #3B8C34",
"i  c #3F8439",
"p  c #3B9433",
"a  c #36AE2C",
"s  c #32B02B",
"d  c #3CAD31",
"f  c #448C3B",
"g  c #419336",
"h  c #46933E",
"j  c #49953E",
"k  c #489A3F",
"l  c #479B3D",
"z  c #42AC35",
"x  c #45AD3A",
"c  c #4AAD3E",
"v  c #4AA03F",
"b  c #46B439",
"n  c #4AB43E",
"m  c #47BA38",
"M  c #4FC23F",
"N  c #4C8D45",
"B  c #4F8A48",
"V  c #528E4B",
"C  c #51824B",
"Z  c #4B9342",
"A  c #4D9A45",
"S  c #509345",
"D  c #509D45",
"F  c #53944C",
"G  c #539B4A",
"H  c #5C9A54",
"J  c #579250",
"K  c #578254",
"L  c #639D5C",
"P  c #4DA644",
"I  c #4DAD41",
"U  c #50AB45",
"Y  c #53A44A",
"T  c #54AA4A",
"R  c #55A747",
"E  c #4EBB41",
"W  c #50B545",
"Q  c #52BD44",
"!  c #54B749",
"~  c #5BB34C",
"^  c #54BE4A",
"/  c #5ABF4B",
"(  c #5CA354",
")  c #5EAD54",
"_  c #5DB352",
"`  c #5CBC52",
"'  c #60BC4F",
"]  c #60B74F",
"[  c #63A35B",
"{  c #64AC5B",
"}  c #68AB5C",
"|  c #61B155",
" . c #62BB52",
".. c #66B359",
"X. c #69B45D",
"o. c #66BB5A",
"O. c #69BC5A",
"+. c #669361",
"@. c #6CAB63",
"#. c #6FAA68",
"$. c #73AF6A",
"%. c #6BB461",
"&. c #6EBD64",
"*. c #74BA68",
"=. c #7BB974",
"-. c #53C145",
";. c #55C049",
":. c #5AC34B",
">. c #5ECA4E",
",. c #5EC154",
"<. c #5CC850",
"1. c #60C54F",
"2. c #64C556",
"3. c #65CA55",
"4. c #65C15A",
"5. c #6AC35D",
"6. c #67C959",
"7. c #6AC95B",
"8. c #6DC263",
"9. c #71C465",
"0. c #73CA64",
"q. c #79C36C",
"w. c #77CC69",
"e. c #79CB6C",
"r. c #77C06E",
"t. c #74D365",
"y. c #76D16C",
"u. c #7BD36E",
"i. c #7CD96E",
"p. c #7DCD71",
"a. c #7EC076",
"s. c #7ED273",
"d. c #7FD774",
"f. c #83A97C",
"g. c #84BF7A",
"h. c #82B17B",
"j. c #80D86F",
"k. c #82CD76",
"l. c #85CC7C",
"z. c #88CD7D",
"x. c #88C37E",
"c. c #83D676",
"v. c #81D972",
"b. c #86D37B",
"n. c #89D47D",
"m. c #85D97A",
"M. c #8ADA7E",
"N. c #8BBD83",
"B. c #8AB884",
"V. c #91B58B",
"C. c #99B296",
"Z. c #9BBD96",
"A. c #A6B4A3",
"S. c #8CCC83",
"D. c #8CC581",
"F. c #92CC8B",
"G. c #91C28B",
"H. c #8CD483",
"J. c #8EDA84",
"K. c #92D386",
"L. c #93DD86",
"P. c #94D38B",
"I. c #99D28E",
"U. c #94D98A",
"Y. c #98DE8E",
"T. c #97C693",
"R. c #99C594",
"E. c #9AD391",
"W. c #9CDD93",
"Q. c #9FDA98",
"!. c #A1CD9A",
"~. c #A2D79A",
"^. c #A4DC9C",
"/. c #9BE38F",
"(. c #96E18C",
"). c #9DE592",
"_. c #A2E495",
"`. c #A6E49B",
"'. c #A6EC9A",
"]. c #A8E89B",
"[. c #A3EB97",
"{. c #A8F09C",
"}. c #A8C9A4",
"|. c #B1C8AE",
" X c #AADDA4",
".X c #AFD2AA",
"XX c #B5DCAE",
"oX c #B4CFB0",
"OX c #B5DDB2",
"+X c #BAD4B6",
"@X c #AAE3A2",
"#X c #ADEAA2",
"$X c #B2EAA7",
"%X c #B2E1AB",
"&X c #B2ECA9",
"*X c #B1E5A5",
"=X c #BCE1B7",
"-X c #BFE9B9",
";X c #BBF1B3",
":X c #C0E3BB",
">X c #C6F0C0",
",X c #C6EBC2",
/* pixels */
"2 2 w s.U.H.e 2 5 x c T l.T.T.OX:X%XH.j.u.0.0.9.j j S S.P.F.",
"2 2 w s.J.H.t 3 5 d c P l.F.F.OX+X%Xn.v.j.0.0.9.j f S S.P.P.",
"2 5 r s.H.s.t e e x c U s.S.F. XXX`.M.v.i.t.0.9.F N J x.H.S.",
";.^ ^ p u p ! ;.^ x x x &.r.=.H J G 0.t.t.' ] X.~. X~.S u p ",
",.,.` 9 0 9 ` ,.,.I I I 4.8.&.Z f g 0.t.t. ._ %.$X:X@Xi 0 0 ",
"` 4.` r 0 w ) %.) G A A 8.8.8.h f h 9.q.*.{ } $.XX:X@Xf 9 9 ",
"b.d.d.W x P & O # O @ $ a.H.l.G S V & O # O O % oX>X&X| x b ",
"J.m.d.^ E T O         @ x.J.l.Y G J O         . +X:X&X| W m ",
"m.d.i.W E T #         o g.M.d.P A N O         @ .X;X{.~ n m ",
"7.7.6.^ -.~ O         o @.8.5.P P F O         o h.l.e.' Q M ",
"2.2.<.^ -._ O         o } 7.4.I I G O         O $.q.7.' -.M ",
"2.2.2.^ ;._ $ o O o o O @.&.X.G G F % . o .   # %.t.7./ / ;.",
"_ _ _ w.s.e.( H L =.B.=.* O O O o % C.}.Z.; - f  .3.2.t.w.u.",
"_ _ | p.b.k.X...%.H.E.T.@         X |.=X XC f g 4.2.O.c.b.b.",
") _ ..k.n.l.{ ) @.g.G.V.+         X A.oX!.V f p O.5.&.k.z.z.",
"k Z Z l.P.S.G Z B $ # @             + @ & @.&.5.(.(.Y.K.K.K.",
"h f Z S.I.F.Z N C O                     O $.9.0.^.^.^.I.I.P.",
"Z Z F S.E.F.F V K O                     # $.8.8.Y.^.~.I.I.I.",
"H H [ @X&X@X[ H +.o                     O [ o.~ R J L `.$X*X",
"( ( ( @X&X@X[ @.+.O                     O +.o.` l j S `.&X$X",
"( ( [ ).{.[.{ ( L O     o o o o o o     O L ..) v l R /.'.].",
"u.u.u.e.0.0.p.b.D.#   o f.V.V.Z.!.C.+   O - f y  .4.O.0.0.0.",
"v.j.i.7.3.7.i.b.D.#   o B.E.F.~. X}.@   o = q 0  .7.3.3.7.3.",
"c.c.v.7.6.7.i.n.x.& o # *.d.p.H.L.G.& o $ = q y 2.5.3.3.3.3.",
"`._.).o.~ ] Y.`._.$.} ] e 7 5 x c R ) _ ' ! n Q t.e.w.~ ~ W ",
"].#X[.| R ~ _.#X_.q.9.3.1 : , a d d >.3.3.M -.:.y.c.u.~ ~ W ",
"`.`._.| ~ ) W.].).*.O.1.2 : 1 s a d :.>.>.n n / p.c.p.~ ~ ~ ",
"K.L.K.O.]  .H.L.J.k g y 1 : : 8 6 6 -.>.:.m z c M.(.L.O.] ] ",
"K.J.n.O.]  .n.J.b.h u r 1 : : 2 2 6 -.>./ x z c J.).L.O. .' ",
"J.J.M.o.'  .n.U.b.h u t 1 : : 8 8 6 -.1.:.x z U J.(.L.o. .' "
};
