/* XPM */
static char *ab47bfd9d4024960fd534c74191ff82bkeesrWY0khV1beKd[] = {
/* columns rows colors chars-per-pixel */
"30 30 154 2 ",
"   c black",
".  c #0B0B0B",
"X  c #1D1403",
"o  c #151313",
"O  c gray12",
"+  c #231606",
"@  c #231709",
"#  c #261A09",
"$  c #2B1D0D",
"%  c #361502",
"&  c #381704",
"*  c #371901",
"=  c #3C1A06",
"-  c #301F0E",
";  c #3E1D09",
":  c #2F1F10",
">  c #2D200E",
",  c #33220E",
"<  c #39230B",
"1  c #2E2110",
"2  c #352512",
"3  c #3E2C16",
"4  c #3E2C18",
"5  c #222123",
"6  c #3B2F29",
"7  c #373737",
"8  c #393032",
"9  c #421E0B",
"0  c #44220D",
"q  c #472410",
"w  c #4B2412",
"e  c #432C14",
"r  c #4D2815",
"t  c #522716",
"y  c #552C19",
"u  c #44321E",
"i  c #4C361F",
"p  c #563019",
"a  c #513822",
"s  c #563D29",
"d  c #423739",
"f  c #673D25",
"g  c #683F24",
"h  c #613729",
"j  c #653C2C",
"k  c #693F2E",
"l  c #733E2C",
"z  c #5B422C",
"x  c #6C4325",
"c  c #6C442A",
"v  c #73442D",
"b  c #754A2F",
"n  c #6B4231",
"m  c #754030",
"M  c #7A4434",
"N  c #754C30",
"B  c #7B4D34",
"V  c #7A4638",
"C  c #744D38",
"Z  c #7A4D3B",
"A  c #7E5134",
"S  c #755139",
"D  c #7D5139",
"F  c #434343",
"G  c #494442",
"H  c #505050",
"J  c #5C5C5E",
"K  c #674A49",
"L  c #775B43",
"P  c #7C5B45",
"I  c #7D5D48",
"U  c #6F5D53",
"Y  c #874C3E",
"T  c #8B4D3E",
"R  c #815436",
"E  c #885737",
"W  c #82543A",
"Q  c #87583E",
"!  c #8C5B3D",
"~  c #935D3E",
"^  c #835543",
"/  c #8F5041",
"(  c #855A43",
")  c #8C5D43",
"_  c #805C4B",
"`  c #925E42",
"'  c #985F41",
"]  c #866047",
"[  c #85634C",
"{  c #8A634E",
"}  c #966243",
"|  c #9B6345",
" . c #9B664A",
".. c #9C694E",
"X. c #8E6853",
"o. c #9D6B52",
"O. c #986F59",
"+. c #9E7056",
"@. c #9B725D",
"#. c #A16743",
"$. c #A36A46",
"%. c #A46D4C",
"&. c #A26C51",
"*. c #A4745D",
"=. c #AB755A",
"-. c #AC795E",
";. c #B2745B",
":. c #B37B5E",
">. c #886269",
",. c #A47760",
"<. c #A67964",
"1. c #AB7D65",
"2. c #AC7E6A",
"3. c #B47D65",
"4. c #B97D64",
"5. c #B47C69",
"6. c #B97C6A",
"7. c #AD816A",
"8. c #B48066",
"9. c #B3846C",
"0. c #BA846E",
"q. c #B5896C",
"w. c #BB8A6F",
"e. c #AA8375",
"r. c #B38272",
"t. c #BC8671",
"y. c #B58A73",
"u. c #BC8C73",
"i. c #BA8F7C",
"p. c #BD9071",
"a. c #BC9079",
"s. c #C28A6D",
"d. c #C8906F",
"f. c #C18B74",
"g. c #C48D79",
"h. c #C39273",
"j. c #C99376",
"k. c #C5947C",
"l. c #C9957A",
"z. c #8A8889",
"x. c #B29084",
"c. c #BC9784",
"v. c #BD9885",
"b. c #BB9489",
"n. c gray69",
"m. c #C79781",
"M. c #CF9D85",
"N. c #C09C8B",
"B. c #D19F87",
"V. c #C5A199",
"C. c #D1B09D",
"Z. c #EFEFEF",
"A. c #F5F4F3",
"S. c #FFFEFE",
/* pixels */
"> > , $ $ $ : > : > $ $ $ $ $ + # + # # # # $ $ $ $ $ $ $ $ ",
", $ - $ $ $ $ 1 $ : : $ $ # $ + # + # # # # $ $ $ $ # $ $ $ ",
"$ - , $ $ $ $ $ 1 1 : $ # $ # + + + # # # # # $ > $ > $ $ # ",
"- - - $ $ $ - $ $ $ $ : > > $ - > $ $ , , - - $ $ $ > # $ $ ",
"$ $ $ > $ $ $ $ $ $ $ 2 2 2 2 e e w e 3 e e 2 $ $ $ $ $ # $ ",
"$ $ > 1 > 1 , $ > 1 > 2 2 2 2 e e e e e e e 2 $ 1 1 $ # # $ ",
"$ $ $ # + + + + X @ X # > # $ < < < < 2 2 2 $ + X @ $ $ $ # ",
"$ $ # u I L L P I I I [ [ [ [ ] ] ] _ [ [ ] P C S S 4 $ > 1 ",
"$ > + z l.p.h.h.l.l.k.M.B.B.M.k.k.g.k.k.l.k.w.:.:.:.a > 2 2 ",
"> > + z p.7.q.q.y.p.u.k.k.k.k.w.t.0.w.u.u.p.3.=.=.:.i > 2 2 ",
"# # X s p.q.q.w.p.p.p.k.m.m.k.u.t.w.f.i.a.a.8.=.:.:.i > 2 1 ",
"X.X.{ @.q.7.9.7.7.7.7.9.9.r.e.,.,.*.2.y.t.u.1...o.%.] Q Q ] ",
"7.7.8.7.9.9.9.7.1.1.2.2.2.2.2.@.@.@.,.u.t.u.-. .o...o.%.%.&.",
"7.<.-.7.9.8.9.5.1.1.1.2.7.7.2.O.@.@.,.t.f.u.*. .|  . .......",
"1.1.7.7.i.i.i.e.e.x.e.2.7.2.2.@.@.,.<.2.b.V.v.-.y.*.o.o.....",
"q.q.7.U J z.S.S.S.S.S.4.6.5.5.t.t.f.>.J J S.S.S.S.S.v.*.1.1.",
"9.9.{       n.S.S.S.S.4.4.5.6.6.r.g.d     H S.S.S.S.c.*.7.<.",
"9.y._     . F S.S.S.S.4.6.6.6.g.g.j.8     7 S.S.S.S.N.-.7.7.",
"-.1.=.6 o G A.S.S.S.S.*.&.o.o.*.@.*.K 5 O Z.S.S.S.S.7...+.+.",
"| | ' $.;.=.3.k.t.t.6.^ j k j j k h ^ d.s.l.C.=.$.| E A A A ",
"' | | &.3.3.:.5.5.2.r.V k k n n n k ( f.0.0.=.$.$.%.! R R R ",
"| #.| &.5.3.3.0.g.u.m.P j c k k k h ( j.d.j.:.#.$.$.E R A D ",
" .' } | %.%.%.) B Z Z V V V V V V V V D A S ! | ~ | Q D R R ",
"` ` ) / ' ~ ' f % = * m / Y T T Y / l & ; % x } ! ! Q D W W ",
"` ` ` ` ~ ~ #.g ; q < M T T T T T T m 0 q 9 c } ~ ~ Q R R W ",
") ) ` ` } ~ | g ; 0 9 M T T T T T / v 0 w ; x } ! ) Q D R R ",
"b N Z N b v B p ; 0 9 r t t t y y y r 0 q ; f ! Q Q B B A N ",
"c c c c c c c p ; 0 9 9 = 9 9 9 9 9 9 q q 9 g Q R W B B B A ",
"c c v c c c m p ; < 0 9 9 9 9 0 q 0 q 0 q 9 f Q R W B B B A ",
"c c c c c c v p ; 0 0 9 9 9 9 0 0 q 9 q q 9 g Q W W B B N B "
};
