/* XPM */
static char *_876a9f5649547ca888d8d4205391c32d21B8eruBBRokRiy[] = {
/* columns rows colors chars-per-pixel */
"30 30 135 2 ",
"   c #592C9F",
".  c #5B319F",
"X  c #4919A0",
"o  c #4E16AE",
"O  c #4E1BAD",
"+  c #511CAD",
"@  c #500EB6",
"#  c #4F16B1",
"$  c #4F19B1",
"%  c #5316B5",
"&  c #5917B5",
"*  c #531AB3",
"=  c #591AB6",
"-  c #5615BA",
";  c #5A15BC",
":  c #5519B9",
">  c #5C19BB",
",  c #6216BD",
"<  c #621ABE",
"1  c #4F20AE",
"2  c #5020A7",
"3  c #5D2DA2",
"4  c #5020AA",
"5  c #5D30AF",
"6  c #5722B2",
"7  c #5F2DB4",
"8  c #612EA5",
"9  c #6732A8",
"0  c #6931AC",
"q  c #6A3AA8",
"w  c #7034AE",
"e  c #622FB4",
"r  c #6533BD",
"t  c #6935BE",
"y  c #7338B0",
"u  c #744DAE",
"i  c #7545B5",
"p  c #7C4DB3",
"a  c #7E51B2",
"s  c #5E15C1",
"d  c #5E19C0",
"f  c #6316C2",
"g  c #6916C6",
"h  c #651AC2",
"j  c #6A1CC5",
"k  c #6616C8",
"l  c #6D1CC9",
"z  c #701CCC",
"x  c #731FCC",
"c  c #741DCC",
"v  c #771FCD",
"b  c #761FCE",
"n  c #721ECB",
"m  c #6720C3",
"M  c #6921C3",
"N  c #6E21C5",
"B  c #6D20C6",
"V  c #6C22C5",
"C  c #662FC0",
"Z  c #6B2FC3",
"A  c #6A2BC4",
"S  c #682EC0",
"D  c #6F20C9",
"F  c #6E21C9",
"G  c #6F22C8",
"H  c #6F20C9",
"J  c #7123C6",
"K  c #7122C9",
"L  c #7021CA",
"P  c #7220CA",
"I  c #7320CA",
"U  c #7223CA",
"Y  c #7421CB",
"T  c #7721CA",
"R  c #7524CB",
"E  c #7721CE",
"W  c #7425CC",
"Q  c #7724CC",
"!  c #7526CD",
"~  c #7523CB",
"^  c #7927CA",
"/  c #7825CD",
"(  c #7827CC",
")  c #7827CE",
"_  c #7C24CE",
"`  c #7924CE",
"'  c #752CCA",
"]  c #7A29CC",
"[  c #7A29CE",
"{  c #7E29CD",
"}  c #7E29CF",
"|  c #7D2BCE",
" . c #7B2DCE",
".. c #7D29CD",
"X. c #6730C2",
"o. c #6E32C5",
"O. c #7231C6",
"+. c #7433CD",
"@. c #7231CA",
"#. c #7D30CC",
"$. c #7B34CE",
"%. c #7A34CE",
"&. c #7B3CCB",
"*. c #7F26D1",
"=. c #7F2BD1",
"-. c #7E36D0",
";. c #7B49C4",
":. c #855DBE",
">. c #822DCF",
",. c #822BD2",
"<. c #812CD0",
"1. c #832ED1",
"2. c #842ED1",
"3. c #842FD2",
"4. c #832BD2",
"5. c #882FD6",
"6. c #8434D1",
"7. c #8736D1",
"8. c #8635D2",
"9. c #8236D4",
"0. c #8632D3",
"q. c #8833D6",
"w. c #8C36D5",
"e. c #8B33D5",
"r. c #833AD1",
"t. c #8738D2",
"y. c #8839D3",
"u. c #8E3DD7",
"i. c #8D3AD6",
"p. c #8C34D8",
"a. c #903DD7",
"s. c #913ED8",
"d. c #9038D8",
"f. c #9642D8",
"g. c #9C48DC",
/* pixels */
":.u u u a a p p q 3     . 3 8 8 3 3 3 8 9 y w 0 8       8 i ",
"A @ > h j j h , f , @ % + : f ; : $ o > j _ v ; % % o % ; ; ",
"X.h j I l I I I l f % * * ; f ; ; $ * < g n l ; & % ; ; f s ",
"&.s.w.,.D h | ,.v j + + + % ; - * + 4 : ; ; ; : - - ; , h ; ",
"r.q.,.! .. ...! j < o % & f j j h ; : > > h ; ; , & - , g g ",
"9.` L l 7.f.! j ; % o % s h v b b h h h j I j % & + - - g z ",
"$.f j M ....h < = % : h W n z z b h s s M y.#.< ; o % % f g ",
"+.: > j j j ; % + = d D ,.*.h l l ; ; s j u.7.j < % * + ; , ",
"t * * ; & & % % ; j ! R D < 6 = > % % % > h j ] N h % * + + ",
"r + ; ; & % + * M I | I h = 1 + * * : * % f h ` I N > : + O ",
"r $ ; : ; % f g y.7.j , + 1 1 O 4 * * % = = = ; G ,.L l & O ",
"t : ; ; % * e D 7.>.h : $ o + O * : & * * & & ; h ! ` ` > = ",
"' v v j h ; ' ,.T j % % o % - % : : : > ; % % * * s ) 4.j f ",
"@.n h f > : N ) l h % % % % % > d h h j j h > # = * M j k s ",
"' k ; % * * > f ; ; & - - - # h l h h j l l h # O $ % ; ; f ",
"+.k f - * * d f ; ; ; ; ; : $ d D I ..=...g ; $ o o > k k k ",
"$.n k s % : d s - ; ; ; - % o < n <.0.a.7.f ; % # # d k k h ",
"' k s - - - l ! n j & & % % % ; d I ) ! Y z g f ; % d s s s ",
"@.s ; % : > I =.,.v > : @ % ; - d j n Y b b l f : * ; ; ; - ",
"@.% # # * 4 > h <.4.>.l - ; ; k l g l e.e.5.J * 6 + $ # # - ",
"@.: ; ; + + * > E 4.5.=.h s : f l n ` e.e.) M * + * ; h - ; ",
"-.s g l > * + * s l p.d.e.Y ; k l 5.w.<.Y - * + % ; R ,.k s ",
"-.s l *.M d * $ : e  .6.e.*.k g l 3.0.I N + + % < n <.3.h s ",
"-.; E q.4.=.d % * * % j 3.=.l l z 4._ > * + o ; n 5.q.q.h ; ",
"' ; h W ,.4.n h * * 4 < N j h h l h m 6 + % > j ` 5.L j : - ",
"X.% : : ! 3.4._ : * 4 4 : ; ; s s - + 1 + ; j _ ,.<.d # # * ",
"C % = : h W 7.d.J < * + * : ; - : * o $ ; v _ v j < * o # # ",
"X.# : $ > h i.g.>.n % * % % - ; ; * $ : ; *.,.z d % $ o * * ",
"o.o * ; < j J ) c l , - - , v l k ; ; j l b h & % # # % o % ",
";.X + : , , , j g h ; ; & f T l h : ; l l T O.e 7 5 e e e 7 "
};
