/* XPM */
static char *_25c744914014175eb8ff96bb9f201cbtL1dbqHnysEThKN7[] = {
/* columns rows colors chars-per-pixel */
"30 30 168 2 ",
"   c #000000",
".  c gray3",
"X  c #1D1403",
"o  c #231606",
"O  c #231709",
"+  c #261A09",
"@  c #2B1D0D",
"#  c #361502",
"$  c #381704",
"%  c #371901",
"&  c #3C1A06",
"*  c #301F0E",
"=  c #3E1D09",
"-  c #2F1F10",
";  c #2D200E",
":  c #33220E",
">  c #39230B",
",  c #2E2110",
"<  c #22201E",
"1  c #352512",
"2  c #3E2C16",
"3  c #3E2C18",
"4  c #222123",
"5  c #2C2C2C",
"6  c gray21",
"7  c #383431",
"8  c #3F3F3F",
"9  c #421E0B",
"0  c #44220D",
"q  c #472410",
"w  c #4B2412",
"e  c #432C14",
"r  c #4D2815",
"t  c #522716",
"y  c #542A16",
"u  c #552C19",
"i  c #48341F",
"p  c #58321B",
"a  c #63371E",
"s  c #513822",
"d  c #563D29",
"f  c #673D25",
"g  c #683F24",
"h  c #613729",
"j  c #653C2C",
"k  c #693F2E",
"l  c #733E2C",
"z  c #5B422C",
"x  c #55443C",
"c  c #6C4325",
"v  c #6C442A",
"b  c #73442D",
"n  c #754A2F",
"m  c #6B4231",
"M  c #754030",
"N  c #7A4434",
"B  c #754C30",
"V  c #7B4D34",
"C  c #7A4638",
"Z  c #754C39",
"A  c #7A4D3B",
"S  c #7E5134",
"D  c #755139",
"F  c #7D5139",
"G  c #775B43",
"H  c #7C5B45",
"J  c #7D5D48",
"K  c #716969",
"L  c #8B4D3E",
"P  c #815436",
"I  c #885737",
"U  c #82543A",
"Y  c #87583E",
"T  c #8C5B3D",
"R  c #935D3E",
"E  c #995F3A",
"W  c #8E603F",
"Q  c #9E623D",
"!  c #8E4F40",
"~  c #845744",
"^  c #8F5041",
"/  c #855A43",
"(  c #8C5D43",
")  c #925E42",
"_  c #985F41",
"`  c #866047",
"'  c #85634C",
"]  c #8C664F",
"[  c #966243",
"{  c #9B6345",
"}  c #9B664A",
"|  c #9C694E",
" . c #856550",
".. c #8E6853",
"X. c #8A6B59",
"o. c #9D6B53",
"O. c #986F59",
"+. c #9E7056",
"@. c #9B725D",
"#. c #A36A46",
"$. c #A36C4D",
"%. c #A26C51",
"&. c #AF7452",
"*. c #A4755D",
"=. c #AC745A",
"-. c #AC795E",
";. c #B2745B",
":. c #B37B5E",
">. c #8B6866",
",. c #926967",
"<. c #997B6C",
"1. c #9C7178",
"2. c #A47760",
"3. c #A67964",
"4. c #AB7D65",
"5. c #AC7E6A",
"6. c #B37D65",
"7. c #B97E63",
"8. c #B57C69",
"9. c #B97C6A",
"0. c #AD816A",
"q. c #B48066",
"w. c #B3846C",
"e. c #BB846D",
"r. c #B5896C",
"t. c #BB8A6F",
"y. c #AA8375",
"u. c #B38272",
"i. c #BB8671",
"p. c #B68871",
"a. c #BE8A72",
"s. c #BB8D71",
"d. c #BE8E72",
"f. c #BC8B74",
"g. c #BA8F7C",
"h. c #BD9071",
"j. c #BC9079",
"k. c #C28A6D",
"l. c #C8906F",
"z. c #C28B74",
"x. c #C38B7A",
"c. c #C68F78",
"v. c #C99376",
"b. c #C4927B",
"n. c #C79678",
"m. c #C5957D",
"M. c #929292",
"N. c #AA8E8F",
"B. c #B19084",
"V. c #BC9583",
"C. c #BC948A",
"Z. c #B6999E",
"A. c #A0A0A0",
"S. c #C79781",
"D. c #CF9D85",
"F. c #D19F87",
"G. c #C9A897",
"H. c #CBAB9B",
"J. c #CDC8CD",
"K. c #D9D2D7",
"L. c #D9D1DD",
"P. c #E4D3CC",
"I. c #E8D9D2",
"U. c #EEE1D5",
"Y. c #E2E0E5",
"T. c #E6E3EE",
"R. c #F8F6F7",
"E. c #FEFEFE",
/* pixels */
"; ; : @ @ @ @ @ , , - @ @ @ + + + + + + + + @ @ @ @ @ @ @ @ ",
": @ * @ @ @ ; , @ - - @ + + + + o o + + + + @ @ @ @ @ @ + @ ",
"@ * : @ @ @ @ , , 1 - @ + @ + + o o + + + + + @ @ @ + @ @ @ ",
"* * * @ @ @ @ @ @ @ @ @ ; @ @ * * @ @ : : * @ @ @ ; @ @ @ + ",
"@ @ @ @ @ @ @ @ @ ; @ : 1 1 1 e q e e 2 e e 1 @ ; @ + @ + @ ",
"@ @ ; , ; , ; ; ; ; ; 1 1 1 1 e e e e e e e 1 @ ; , @ @ @ @ ",
"@ @ @ + X O o o X O o + + @ @ > > > > : 1 1 + + X O + @ O @ ",
"@ @ + i / G G J J J J '  .' ' ` ' ' ( ' ' ' H Z D D 3 , , , ",
"@ ; o z n.h.h.n.n.n.n.D.F.F.D.b.b.c.b.m.n.m.e.:.:.q.s ; 1 1 ",
"; @ o z h.0.r.r.s.s.s.b.b.S.j.t.i.e.t.s.f.h.6.=.=.=.s : 1 1 ",
"+ @ X d h.r.r.s.h.h.d.m.S.S.S.a.i.s.d.d.f.h.q.=.:.:.i ; 1 ; ",
"....] @.w.w.w.0.0.0.0.u.u.p.0.2.2.2.4.i.f.g.4.| | $.` Y Y ` ",
"0.0.w.0.u.r.p.0.3.4.5.5.5.5.5.,.@.O.2.i.i.z.-.} | | | $.%.%.",
"3.4.-.0.q.q.8.0.4.5.4.5.0.0.0.@.O.O.3.z.a.h.*.[ } } | | | | ",
"4.0.0.0.g.g.g.y.y.B.y.5.0.5.0.@.<.*.3.u.C.C.0.@.*.*.o.| | | ",
"w.w.0.G.E.R.E.Y.8 . 6 N.7.8.8.t.i.a.1.T.E.E.T.x   5 <.*.4.4.",
"w.r.6.G.E.R.E.M.      K 9.8.8.i.i.z.Z.E.E.E.A.      x *.0.4.",
"w.r.5.H.E.R.E.M.      K 9.9.9.x.z.c.Z.E.E.E.A.      x 3.0.0.",
"-.4.=.V.I.P.U.J.5   4 >.%.o.o.*.*.*.,.L.E.E.K.7   < X.o.+.+.",
"{ { _ $.;.;.=.7.i.8.i.C h k j j j h ~ k.k.l.&.E Q Q I S S S ",
"{ { _ %.7.6.6.8.8.u.u.C k v m m m j ~ z.9.t.;.#.#.#.T S P P ",
"} } { %.8.7.6.e.x.z.x.H j k k k v h ~ v.z.v.:.{ #.#.I S S P ",
"_ _ _ { $.$.%.( Z A A C C N C C C C A F F S T { { { Y S P F ",
") ) ) ( R R { a # & % M ! L L L L ^ l $ = % g [ T T U U U U ",
") ) ) ) R R { f = q > N L L L L L ! l 0 w 9 v [ R R U U P U ",
") ) ) ) { R #.f & 0 9 N L L L L L ! l 0 q = c [ T W U F F S ",
"n n Z B n b V p & 0 0 w t t y u u u r q q 9 g T U Y S V S V ",
"v v v v v c v u = 0 0 9 & 9 9 9 9 9 9 q q 9 f Y U U V V V B ",
"v v v v v v b u = > > 9 9 9 9 9 q q 0 0 9 9 g / U U V V S V ",
"v v m v v v n p 0 0 0 9 9 9 9 q 0 0 q 0 q 9 g / U U S V S V "
};
