/* XPM */
static char *f9d834a939df4c8c9167b69c7102ae4azWp05L1RSmstPHLU[] = {
/* columns rows colors chars-per-pixel */
"30 30 179 2 ",
"   c #1D1403",
".  c #231606",
"X  c #231709",
"o  c #261A09",
"O  c #2B1D0D",
"+  c #361502",
"@  c #381704",
"#  c #371901",
"$  c #3C1A06",
"%  c #301F0E",
"&  c #3E1D09",
"*  c #2F1F10",
"=  c #2D200E",
"-  c #33220E",
";  c #39230B",
":  c #2E2111",
">  c #352512",
",  c #3E2C17",
"<  c #421E0B",
"1  c #44220D",
"2  c #472410",
"3  c #4B2412",
"4  c #432C14",
"5  c #4D2815",
"6  c #542A16",
"7  c #552C19",
"8  c #522716",
"9  c #48341F",
"0  c #563019",
"q  c #58321B",
"w  c #63371E",
"e  c #503721",
"r  c #513822",
"t  c #583F29",
"y  c #563D29",
"u  c #673D25",
"i  c #683F24",
"p  c #613729",
"a  c #653C2C",
"s  c #693F2E",
"d  c #733E2C",
"f  c #5B422C",
"g  c #6C442A",
"h  c #6C4325",
"j  c #73442D",
"k  c #754A2F",
"l  c #6B4231",
"z  c #754030",
"x  c #7A4434",
"c  c #7B4D34",
"v  c #7A4638",
"b  c #754C39",
"n  c #7A4D3B",
"m  c #754C30",
"M  c #7E5134",
"N  c #755139",
"B  c #7D5139",
"V  c #432D7F",
"C  c #4B337F",
"Z  c #7C5B45",
"A  c #7A5C46",
"S  c #69497B",
"D  c #8B4D3E",
"F  c #874C3E",
"G  c #815436",
"H  c #885737",
"J  c #82543A",
"K  c #87583E",
"L  c #8C5B3D",
"P  c #935D3E",
"I  c #9A5E3A",
"U  c #8E603F",
"Y  c #9E633C",
"T  c #8E4F40",
"R  c #8F5041",
"E  c #855A43",
"W  c #8C5D43",
"Q  c #845744",
"!  c #925E42",
"~  c #985F41",
"^  c #866147",
"/  c #85634C",
"(  c #8C664F",
")  c #966243",
"_  c #9B6345",
"`  c #9B664A",
"'  c #9C694E",
"]  c #856550",
"[  c #8E6853",
"{  c #9D6B53",
"}  c #986F59",
"|  c #9E7056",
" . c #9B725D",
".. c #A36A46",
"X. c #A36C4D",
"o. c #A26C51",
"O. c #A4755D",
"+. c #AC745A",
"@. c #AC795E",
"#. c #AF7452",
"$. c #B37B5E",
"%. c #B2745B",
"&. c #9F6D6E",
"*. c #936764",
"=. c #9F7567",
"-. c #9A7177",
";. c #9C727A",
":. c #A06E6F",
">. c #A47760",
",. c #A67964",
"<. c #AB7D65",
"1. c #A17769",
"2. c #AC7E6A",
"3. c #A2786A",
"4. c #B37D65",
"5. c #B97E63",
"6. c #B57C69",
"7. c #B97C6A",
"8. c #A16F70",
"9. c #AD816A",
"0. c #B3846C",
"q. c #BB846D",
"w. c #B5896C",
"e. c #BB8A6F",
"r. c #B48166",
"t. c #AE8273",
"y. c #B38372",
"u. c #BC8671",
"i. c #B68871",
"p. c #BA8A72",
"a. c #BE8A72",
"s. c #BB8D71",
"d. c #BE8E72",
"f. c #BD8B74",
"g. c #BA8F7C",
"h. c #B28278",
"j. c #BD9071",
"k. c #BC9079",
"l. c #C28A6D",
"z. c #C8906F",
"x. c #C28C74",
"c. c #C38B7A",
"v. c #C39273",
"b. c #C99376",
"n. c #C69179",
"m. c #C79678",
"M. c #C5957D",
"N. c #C2937C",
"B. c #C8967B",
"V. c #3F2B82",
"C. c #452E80",
"Z. c #4D3A8A",
"A. c #46348A",
"S. c #513D8A",
"D. c #574189",
"F. c #594488",
"G. c #6F5280",
"H. c #735381",
"J. c #BC9784",
"K. c #BD9885",
"L. c #9B8FBD",
"P. c #9E90BA",
"I. c #A38BA3",
"U. c #AE98A5",
"Y. c #C79781",
"T. c #CF9D86",
"R. c #C09B89",
"E. c #D19F88",
"W. c #C9A897",
"Q. c #CBAB9B",
"!. c #AFA4C5",
"~. c #ACA4CB",
"^. c #DFCDC3",
"/. c #E3D3CA",
"(. c #E9D9CA",
"). c #EBDCD2",
"_. c #F7F5F6",
"`. c #F8F6F7",
"'. c #FEFEFD",
/* pixels */
"= = - O O O = = * : O O O o O X o o o o o o O O O O O O O o ",
"- O % O O O O : * O * O O o O X . . o o o o O O O O O O = o ",
"O % - O O O O O : > O O o O o . . . . o o o o O O O O O = O ",
"% % % O O O % O O O O * = = O % % = = = - % O O = O = o o O ",
"O O O O O = O O O O O - > > > 4 5 4 4 , 4 4 > O O O O o O o ",
"O O = : : = = = = = = > > - > 4 4 4 4 4 4 4 > O = : O O O O ",
"O O O o   . . .   . . O o O O ; ; ; ; ; > > o X   X O o X O ",
"O O o 9 Z A A Z A A A / ] ] / ^ / / E / / / A b N N , * : : ",
"O = . f B.j.j.m.B.B.m.T.E.E.T.n.n.n.n.M.M.B.q.$.$.$.9 = > > ",
"O * . t j.9.w.w.s.j.e.N.M.M.k.p.a.q.s.s.s.d.4.+.%.$.r - > > ",
"o O   y j.w.w.w.j.v.s.M.Y.Y.M.s.e.s.d.s.s.f.0.+.@.$.9 = > > ",
"[ [ ( } w.0.0.0.9.9.9.y.y.y.y.>.>. .2.p.p.g.@.X.o.X.^ Z K U ",
"9.9.9.0.0.0.y.9.<.<.,.2.9.2.2. . .} >.a.q.x.@.` ' ' ' o.| ' ",
"<.<.,.9.0.0.0.4.<.<.<.2.9.9.2. . . .1.x.a.s.@.) ` ` ` ' ` ' ",
"<.<.<.9.k.g.k.9.1.3.1.2.9.2.<.=. .O.3.y.y.h.<.+.O.O.| ' ' ' ",
"0.w.r.W.'.`.'.P.C F.S.:.6.6.4.q.u.l.;.S.F.C.!.'._.'.J.O.@.9.",
"w.0.<.W.'.`.'.P.C.S.S.:.5.6.7.u.u.x.;.Z.D.C.~.'.'.'.J.O.9.9.",
"i.y.6.Q.'.'.'.L.C.S.A.8.7.7.7.c.x.x.;.Z.S.C.~.'.'.'.K.,.9.9.",
"@.<.+.J.)./.).I.S H.G.*.o.{ { >.O.O.*.S H.S U.(.^./.9.' | | ",
"_ _ ~ X.%.%.%.r.c.7.u.v a a a a a p Q x.l.z.#.I Y Y H M c M ",
"` ~ ~ o.6.4.$.6.6.y.y.Z s l l l l a Q a.q.q.+.....X.L M J G ",
"` .._ o.6.5.4.q.c.x.c.n a s s s s a Q b.b.b.$.......H M M M ",
"~ ~ ~ _ X.X.o.W b n N v x v v v v v v J J c L _ ) _ H B G J ",
"! ! W ! P P _ w + $ # x D D D D D R d # & # u U P L J G J B ",
"! ! ! ! I ~ _ u & 1 1 k D D D D D T d 1 3 < g ) P U H J M J ",
"! W ! ! ~ P ` u & 1 < x D D D D D T z 1 3 & h ) L U H B J G ",
"k k b k k j c q & 1 < 5 8 8 6 7 7 7 5 1 3 & u K K E c c M c ",
"g g g g g g g 7 & 1 < & $ < < < < 1 1 1 1 < u K J J c c m c ",
"g g j g g g g q & ; 1 < < < < < 1 1 1 2 < < u W G J c c c M ",
"g l g g g g j q & 1 1 1 < < < 1 2 1 2 1 3 < u K J J c c M m "
};
